<?xml version="1.0" standalone="no"?>
<!DOCTYPE svg PUBLIC "-//W3C//DTD SVG 20010904//EN"
 "http://www.w3.org/TR/2001/REC-SVG-20010904/DTD/svg10.dtd">
<svg version="1.0" xmlns="http://www.w3.org/2000/svg"
 width="11.000000pt" height="22.000000pt" viewBox="0 0 11.000000 22.000000"
 preserveAspectRatio="xMidYMid meet">

<g transform="translate(0.000000,22.000000) scale(0.100000,-0.100000)"
fill="#000000" stroke="none">
<path d="M42 208 c-6 -6 -12 -22 -12 -35 0 -14 -6 -23 -15 -23 -20 0 -20 -36
0 -44 11 -4 15 -20 15 -56 0 -43 3 -50 20 -50 18 0 20 7 20 55 0 40 4 55 14
55 23 0 29 31 6 37 -26 7 -26 29 1 36 12 3 19 12 17 19 -6 18 -50 22 -66 6z" fill="#fff"/>
</g>
</svg>
