<?xml version="1.0" standalone="no"?>
<!DOCTYPE svg PUBLIC "-//W3C//DTD SVG 20010904//EN"
 "http://www.w3.org/TR/2001/REC-SVG-20010904/DTD/svg10.dtd">
<svg version="1.0" xmlns="http://www.w3.org/2000/svg"
 width="22.000000pt" height="16.000000pt" viewBox="0 0 22.000000 16.000000"
 preserveAspectRatio="xMidYMid meet">

<g transform="translate(0.000000,16.000000) scale(0.100000,-0.100000)"
fill="#000000" stroke="none">
<path d="M0 80 l0 -80 110 0 110 0 0 80 0 80 -110 0 -110 0 0 -80z m180 63 c0
-5 -15 -18 -34 -31 l-34 -23 -36 23 c-20 13 -36 26 -36 31 0 4 32 7 70 7 39 0
70 -3 70 -7z m30 -68 l0 -65 -94 0 -94 0 -4 60 c-1 33 -1 60 3 60 3 0 24 -14
47 -31 l42 -31 48 36 c26 19 48 36 50 36 1 0 2 -29 2 -65z" fill="#fff"/>
</g>
</svg>
